<svg xmlns="http://www.w3.org/2000/svg" viewBox="0 0 98.69 9.79"><defs><style>.cls-1{fill:#fff;}</style></defs><g id="Ebene_2" data-name="Ebene 2"><g id="Ebene_1-2" data-name="Ebene 1"><path class="cls-1" d="M8.73,7.5H9.82A3.64,3.64,0,0,1,8.25,9.11a5.92,5.92,0,0,1-2.94.68,6.82,6.82,0,0,1-2.9-.57A3.8,3.8,0,0,1,.6,7.54,5,5,0,0,1,0,5.13,5.45,5.45,0,0,1,.68,2.47,4.46,4.46,0,0,1,2.53.62,5.71,5.71,0,0,1,5.22,0,5.09,5.09,0,0,1,7.5.5,3.48,3.48,0,0,1,9,1.92a4,4,0,0,1,.53,2,3.8,3.8,0,0,1-.8,2.35A3.1,3.1,0,0,1,6.18,7.59a1.12,1.12,0,0,1-.64-.15A.66.66,0,0,1,5.26,7a1.92,1.92,0,0,1-1.39.58A1.85,1.85,0,0,1,2.47,7a2.15,2.15,0,0,1-.56-1.55,3.78,3.78,0,0,1,.68-2.18,2.42,2.42,0,0,1,2.08-1.2A1.47,1.47,0,0,1,6,2.77l.13-.57H7.48L6.71,5.85a2.58,2.58,0,0,0-.07.45.27.27,0,0,0,.06.19.2.2,0,0,0,.14.06,1.13,1.13,0,0,0,.63-.29,2.72,2.72,0,0,0,.84-1,3,3,0,0,0,.32-1.35,2.75,2.75,0,0,0-.9-2.09A3.59,3.59,0,0,0,5.2.94a4.51,4.51,0,0,0-2.34.56A3.58,3.58,0,0,0,1.41,3.08,5,5,0,0,0,.93,5.21a3.67,3.67,0,0,0,.54,2A3.15,3.15,0,0,0,3,8.45a5.81,5.81,0,0,0,2.24.4,5.69,5.69,0,0,0,2.09-.34A3.13,3.13,0,0,0,8.73,7.5ZM3.23,5.4a1.51,1.51,0,0,0,.26,1,.83.83,0,0,0,.65.3,1.15,1.15,0,0,0,.55-.14,1.54,1.54,0,0,0,.38-.32,2.65,2.65,0,0,0,.46-.91,3.26,3.26,0,0,0,.2-1.11,1.3,1.3,0,0,0-.27-.88A.87.87,0,0,0,4.79,3,1.22,1.22,0,0,0,4,3.33a2.13,2.13,0,0,0-.56,1A3.68,3.68,0,0,0,3.23,5.4Z"/><path class="cls-1" d="M11,2.19h1.37L12.1,3.24a2.08,2.08,0,0,1,1.65-1.18,1.64,1.64,0,0,1,.68.16l-.56,1.19a1.48,1.48,0,0,0-.42-.07,1.3,1.3,0,0,0-.77.29,1.92,1.92,0,0,0-.61.76,7.89,7.89,0,0,0-.43,1.51l-.36,1.69H9.82Z"/><path class="cls-1" d="M16,3.72,14.6,3.6a2.11,2.11,0,0,1,.85-1.13,2.84,2.84,0,0,1,1.61-.41,2.36,2.36,0,0,1,1.54.42,1.3,1.3,0,0,1,.5,1,3.28,3.28,0,0,1,0,.52c0,.18-.13.66-.31,1.44a7.69,7.69,0,0,0-.21,1.35,2.78,2.78,0,0,0,.12.77H17.24a2.43,2.43,0,0,1-.1-.61,2.31,2.31,0,0,1-.74.55,2,2,0,0,1-.84.19,1.51,1.51,0,0,1-1.11-.44A1.54,1.54,0,0,1,14,6.15a1.64,1.64,0,0,1,.48-1.24,2.82,2.82,0,0,1,1.72-.56,7,7,0,0,0,1.39-.21,1.77,1.77,0,0,0,.09-.49.51.51,0,0,0-.18-.39A.91.91,0,0,0,17,3.1a1.11,1.11,0,0,0-.62.16A.79.79,0,0,0,16,3.72Zm1.39,1.35a2.15,2.15,0,0,1-.35.07,3.42,3.42,0,0,0-1.44.39.58.58,0,0,0-.24.49.59.59,0,0,0,.19.43.65.65,0,0,0,.48.18,1.33,1.33,0,0,0,.62-.16,1.05,1.05,0,0,0,.44-.42,2.79,2.79,0,0,0,.26-.78Z"/><path class="cls-1" d="M20.84,2.19h1.38l-.11.55a3.11,3.11,0,0,1,.83-.52,2,2,0,0,1,.83-.16,1.73,1.73,0,0,1,1.36.59,2.53,2.53,0,0,1,.52,1.74,3.6,3.6,0,0,1-.89,2.47A2.35,2.35,0,0,1,23,7.72a1.8,1.8,0,0,1-1.62-.87l-.59,2.8H19.28Zm.88,3.1a1.42,1.42,0,0,0,.31,1,.94.94,0,0,0,.72.35,1.1,1.1,0,0,0,.7-.27A1.9,1.9,0,0,0,24,5.48a3.22,3.22,0,0,0,.22-1.12,1.35,1.35,0,0,0-.29-.93.94.94,0,0,0-.74-.33,1.13,1.13,0,0,0-.76.3,1.86,1.86,0,0,0-.53.88A3.17,3.17,0,0,0,21.72,5.29Z"/><path class="cls-1" d="M27.6,7.59H26.14L27.71.13h1.46l-.56,2.66a3.91,3.91,0,0,1,.92-.56,2.49,2.49,0,0,1,.91-.17,1.41,1.41,0,0,1,1,.38,1.3,1.3,0,0,1,.38,1,5,5,0,0,1-.14,1l-.66,3.16H29.6l.68-3.22a4.35,4.35,0,0,0,.1-.67.54.54,0,0,0-.17-.43.61.61,0,0,0-.45-.17,1.17,1.17,0,0,0-.71.26,2.18,2.18,0,0,0-.66.82,7.05,7.05,0,0,0-.34,1.27Z"/><path class="cls-1" d="M34.55,3.72,33.13,3.6A2.11,2.11,0,0,1,34,2.47a2.84,2.84,0,0,1,1.61-.41,2.36,2.36,0,0,1,1.54.42,1.3,1.3,0,0,1,.5,1,5.13,5.13,0,0,1,0,.52c0,.18-.13.66-.31,1.44a7.69,7.69,0,0,0-.21,1.35,2.78,2.78,0,0,0,.12.77H35.77A3,3,0,0,1,35.66,7a2.27,2.27,0,0,1-.73.55,2,2,0,0,1-.84.19A1.51,1.51,0,0,1,33,7.28a1.54,1.54,0,0,1-.44-1.13A1.64,1.64,0,0,1,33,4.91a2.82,2.82,0,0,1,1.72-.56,7,7,0,0,0,1.39-.21,1.77,1.77,0,0,0,.09-.49A.51.51,0,0,0,36,3.26a.91.91,0,0,0-.56-.16,1.11,1.11,0,0,0-.62.16A.79.79,0,0,0,34.55,3.72Zm1.39,1.35a2.15,2.15,0,0,1-.35.07,3.42,3.42,0,0,0-1.44.39.58.58,0,0,0-.24.49.59.59,0,0,0,.19.43.65.65,0,0,0,.48.18,1.33,1.33,0,0,0,.62-.16,1.05,1.05,0,0,0,.44-.42,2.79,2.79,0,0,0,.26-.78Z"/><path class="cls-1" d="M43.55,5.34H39.88v.14a1.22,1.22,0,0,0,.31.87,1,1,0,0,0,.75.33,1.24,1.24,0,0,0,1.13-.76l1.31.22a2.73,2.73,0,0,1-1,1.19,2.69,2.69,0,0,1-1.43.39A2.37,2.37,0,0,1,39.16,7a2.47,2.47,0,0,1-.69-1.82,3.35,3.35,0,0,1,.62-2,2.78,2.78,0,0,1,2.4-1.17,2.09,2.09,0,0,1,1.57.61,2.41,2.41,0,0,1,.59,1.72A4,4,0,0,1,43.55,5.34Zm-1.23-.89V4.31a1.34,1.34,0,0,0-.27-.91.92.92,0,0,0-.72-.3,1.15,1.15,0,0,0-.81.35,1.82,1.82,0,0,0-.49,1Z"/><path class="cls-1" d="M44.07,7.59,45.63.13h1.46L45.53,7.59Z"/><path class="cls-1" d="M46.9,7.88l1.54.22a.69.69,0,0,0,.08.36.66.66,0,0,0,.25.2,1,1,0,0,0,.46.08A1.33,1.33,0,0,0,50,8.56a1.06,1.06,0,0,0,.35-.46,5.91,5.91,0,0,0,.2-.86L50.58,7A2.45,2.45,0,0,1,49,7.61a1.64,1.64,0,0,1-1.3-.56,2.35,2.35,0,0,1-.51-1.64,4.32,4.32,0,0,1,.34-1.74,2.67,2.67,0,0,1,1-1.2,2.36,2.36,0,0,1,1.28-.41,1.82,1.82,0,0,1,1,.29,1.89,1.89,0,0,1,.7.8l.2-1h1.37l-.94,4.5c-.15.72-.28,1.24-.38,1.55a2.83,2.83,0,0,1-.37.74,1.75,1.75,0,0,1-.51.46,2.25,2.25,0,0,1-.73.26,4.42,4.42,0,0,1-.92.09,3.05,3.05,0,0,1-1.73-.4,1.44,1.44,0,0,1-.58-1.3A1.62,1.62,0,0,1,46.9,7.88Zm1.72-2.61a1.39,1.39,0,0,0,.28.94.89.89,0,0,0,.69.32,1.15,1.15,0,0,0,.74-.29,1.74,1.74,0,0,0,.55-.83,3,3,0,0,0,.19-1,1.31,1.31,0,0,0-.31-.92.9.9,0,0,0-.71-.36,1.06,1.06,0,0,0-.72.31,2.29,2.29,0,0,0-.54,1A2.89,2.89,0,0,0,48.62,5.27Z"/><path class="cls-1" d="M54.39,2.19h1.37l-.22,1.05a2.08,2.08,0,0,1,1.65-1.18,1.64,1.64,0,0,1,.68.16l-.56,1.19a1.42,1.42,0,0,0-.42-.07,1.32,1.32,0,0,0-.77.29,1.92,1.92,0,0,0-.61.76,7.89,7.89,0,0,0-.43,1.51l-.36,1.69H53.26Z"/><path class="cls-1" d="M59.46,3.72,58,3.6a2.11,2.11,0,0,1,.85-1.13,2.84,2.84,0,0,1,1.61-.41A2.34,2.34,0,0,1,62,2.48a1.3,1.3,0,0,1,.5,1,3.28,3.28,0,0,1,0,.52c0,.18-.13.66-.31,1.44A7.69,7.69,0,0,0,62,6.82a2.78,2.78,0,0,0,.12.77H60.68a3,3,0,0,1-.1-.61,2.31,2.31,0,0,1-.74.55,2,2,0,0,1-.84.19,1.51,1.51,0,0,1-1.11-.44,1.54,1.54,0,0,1-.44-1.13,1.64,1.64,0,0,1,.48-1.24,2.84,2.84,0,0,1,1.72-.56A6.9,6.9,0,0,0,61,4.14a1.51,1.51,0,0,0,.1-.49A.52.52,0,0,0,61,3.26a.89.89,0,0,0-.56-.16,1.11,1.11,0,0,0-.62.16A.84.84,0,0,0,59.46,3.72Zm1.39,1.35a1.94,1.94,0,0,1-.35.07,3.31,3.31,0,0,0-1.43.39.58.58,0,0,0-.24.49.58.58,0,0,0,.18.43.65.65,0,0,0,.48.18,1.4,1.4,0,0,0,.63-.16,1.09,1.09,0,0,0,.43-.42,2.5,2.5,0,0,0,.26-.78Z"/><path class="cls-1" d="M63,6.08l1.41-.22a1.41,1.41,0,0,0,.47.63,1.41,1.41,0,0,0,.77.19,1.28,1.28,0,0,0,.79-.23.44.44,0,0,0,.21-.37.37.37,0,0,0-.1-.26A1.83,1.83,0,0,0,66,5.54a6.55,6.55,0,0,1-1.64-.69,1.27,1.27,0,0,1-.49-1,1.47,1.47,0,0,1,.48-1.1,3.38,3.38,0,0,1,3.55-.27,1.65,1.65,0,0,1,.68,1l-1.35.23a.8.8,0,0,0-.34-.44,1.43,1.43,0,0,0-.79-.2,1.15,1.15,0,0,0-.66.15.45.45,0,0,0-.2.35.39.39,0,0,0,.21.34,4.48,4.48,0,0,0,.81.28,4.51,4.51,0,0,1,1.44.61,1.3,1.3,0,0,1,.5,1,1.74,1.74,0,0,1-.64,1.34,2.71,2.71,0,0,1-1.82.56,3.19,3.19,0,0,1-1.81-.43A2.11,2.11,0,0,1,63,6.08Z"/><path class="cls-1" d="M68.81,6.08l1.41-.22a1.34,1.34,0,0,0,.47.63,1.37,1.37,0,0,0,.76.19,1.31,1.31,0,0,0,.8-.23.44.44,0,0,0,.21-.37.38.38,0,0,0-.11-.26,1.64,1.64,0,0,0-.6-.28,6.37,6.37,0,0,1-1.64-.69,1.28,1.28,0,0,1-.5-1,1.47,1.47,0,0,1,.48-1.1,3.4,3.4,0,0,1,3.56-.27,1.69,1.69,0,0,1,.68,1L73,3.71a.82.82,0,0,0-.35-.44,1.39,1.39,0,0,0-.78-.2,1.11,1.11,0,0,0-.66.15.45.45,0,0,0-.2.35.4.4,0,0,0,.2.34,5.11,5.11,0,0,0,.82.28,4.43,4.43,0,0,1,1.43.61,1.31,1.31,0,0,1,.51,1,1.75,1.75,0,0,1-.65,1.34,2.7,2.7,0,0,1-1.82.56,3.21,3.21,0,0,1-1.81-.43A2.14,2.14,0,0,1,68.81,6.08Z"/><path class="cls-1" d="M80.05,5.34H76.39a.82.82,0,0,0,0,.14,1.22,1.22,0,0,0,.31.87,1,1,0,0,0,.75.33,1.25,1.25,0,0,0,1.14-.76l1.3.22a2.73,2.73,0,0,1-1,1.19,2.67,2.67,0,0,1-1.43.39A2.38,2.38,0,0,1,75.66,7,2.5,2.5,0,0,1,75,5.21a3.34,3.34,0,0,1,.61-2A2.78,2.78,0,0,1,78,2.06a2.12,2.12,0,0,1,1.58.61,2.4,2.4,0,0,1,.58,1.72A4,4,0,0,1,80.05,5.34Zm-1.23-.89V4.31a1.34,1.34,0,0,0-.26-.91.94.94,0,0,0-.73-.3,1.15,1.15,0,0,0-.81.35,1.75,1.75,0,0,0-.48,1Z"/><path class="cls-1" d="M81.64,2.19H83l-.22,1.05a2.08,2.08,0,0,1,1.65-1.18,1.64,1.64,0,0,1,.68.16l-.56,1.19a1.42,1.42,0,0,0-.42-.07,1.32,1.32,0,0,0-.77.29,1.92,1.92,0,0,0-.61.76,7.89,7.89,0,0,0-.43,1.51L82,7.59H80.51Z"/><path class="cls-1" d="M84.4,6.18h1.45l-.3,1.41H84.11Z"/><path class="cls-1" d="M92,7.59H90.57L90.69,7a2.87,2.87,0,0,1-.78.55,2.14,2.14,0,0,1-.87.16,1.77,1.77,0,0,1-1.36-.57,2.43,2.43,0,0,1-.52-1.69,4.06,4.06,0,0,1,.73-2.35,2.27,2.27,0,0,1,1.94-1,1.81,1.81,0,0,1,1.64.87l.58-2.8h1.46Zm-3.37-2.2a1.34,1.34,0,0,0,.29.91.94.94,0,0,0,.72.33,1.1,1.1,0,0,0,.74-.28,1.73,1.73,0,0,0,.55-.83,3,3,0,0,0,.21-1.07,1.35,1.35,0,0,0-.32-1,.94.94,0,0,0-.72-.36A1.23,1.23,0,0,0,89,3.85,3.09,3.09,0,0,0,88.58,5.39Z"/><path class="cls-1" d="M98.59,5.34H94.93a.82.82,0,0,0,0,.14,1.27,1.27,0,0,0,.31.87,1,1,0,0,0,.75.33,1.24,1.24,0,0,0,1.14-.76l1.3.22a2.73,2.73,0,0,1-1,1.19A2.67,2.67,0,0,1,96,7.72,2.38,2.38,0,0,1,94.2,7a2.5,2.5,0,0,1-.68-1.82,3.34,3.34,0,0,1,.61-2,2.78,2.78,0,0,1,2.4-1.17,2.12,2.12,0,0,1,1.58.61,2.4,2.4,0,0,1,.58,1.72A4,4,0,0,1,98.59,5.34Zm-1.23-.89c0-.06,0-.11,0-.14a1.34,1.34,0,0,0-.27-.91.94.94,0,0,0-.73-.3,1.15,1.15,0,0,0-.81.35,1.75,1.75,0,0,0-.48,1Z"/></g></g></svg>